<?xml version="1.0" encoding="utf-8"?>
<!-- Generator: Adobe Illustrator 16.0.4, SVG Export Plug-In . SVG Version: 6.00 Build 0)  -->
<!DOCTYPE svg PUBLIC "-//W3C//DTD SVG 1.1//EN" "http://www.w3.org/Graphics/SVG/1.1/DTD/svg11.dtd">
<svg version="1.1" xmlns="http://www.w3.org/2000/svg" xmlns:xlink="http://www.w3.org/1999/xlink" x="0px" y="0px" width="20px"
	 height="20px" viewBox="0 0 20 20" enable-background="new 0 0 20 20" xml:space="preserve">
<g id="Layer_1">
	<g>
		<g>
			<path fill="#FFFFFF" d="M7.061,9.834c0.011-0.197,0.025-0.394,0.05-0.592c0.047-0.471,0.147-0.944,0.251-1.403
				C7.427,7.609,7.497,7.382,7.57,7.161C7.662,6.945,7.752,6.729,7.841,6.52c0.204-0.409,0.432-0.793,0.707-1.115
				c0.064-0.082,0.128-0.163,0.19-0.244c0.073-0.07,0.144-0.14,0.213-0.21c0.145-0.132,0.271-0.274,0.417-0.378
				c0.291-0.215,0.549-0.42,0.81-0.546c0.252-0.14,0.468-0.264,0.664-0.333c0.381-0.152,0.6-0.229,0.6-0.229
				s-0.186,0.146-0.51,0.384c-0.166,0.109-0.342,0.283-0.555,0.459c-0.218,0.168-0.417,0.409-0.653,0.639
				c-0.121,0.118-0.21,0.267-0.322,0.402C9.346,5.416,9.29,5.486,9.234,5.558C9.186,5.637,9.139,5.715,9.091,5.796
				c-0.21,0.308-0.368,0.673-0.53,1.039C8.496,7.029,8.43,7.225,8.36,7.421C8.312,7.629,8.261,7.836,8.203,8.041
				c-0.084,0.426-0.168,0.86-0.205,1.306C7.973,9.509,7.961,9.671,7.945,9.834c3.542,0.002,6.284,0.002,10.119,0.002
				c0.012-0.169,0.021-0.337,0.021-0.508c0-3.229-2.354-5.892-5.382-6.244c0.192-0.183,0.319-0.443,0.319-0.731
				c0-0.555-0.449-1.003-1.002-1.003c-0.556,0-1.004,0.448-1.004,1.003c0,0.289,0.124,0.549,0.319,0.731
				C8.306,3.438,5.951,6.1,5.951,9.329c0,0.168,0.007,0.336,0.019,0.505H7.061z M7.061,9.834"/>
			<rect x="4.847" y="10.207" fill="#FFFFFF" width="14.344" height="1.266"/>
			<path fill="#FFFFFF" d="M13.302,12.372c-0.729,0.354-3.27,1.269-3.27,1.269l-3.006-0.187c0,0,1.72-0.477,2.384-0.628
				c0.669-0.148,0.378-0.902,0.009-0.902c-0.368,0-3.584,0.136-3.584,0.136l-2.135,0.767l0.566,3.577c0,0,0.437-0.754,0.877-0.754
				c0.439,0,4.252,0.101,4.768,0c0.519-0.101,3.672-2.259,4.048-2.51C14.338,12.888,14.032,12.017,13.302,12.372L13.302,12.372z
				 M13.302,12.372"/>
			<path fill="#FFFFFF" d="M0.83,13.21v4.637l3.271-0.61l-0.818-4.458L0.83,13.21z M0.83,13.21"/>
		</g>
	</g>
</g>
<g id="Layer_2" display="none">
	<g display="inline">
		<g>
			<path fill="#FFFFFF" d="M9.748,2.907c-4.138,0-7.495,3.354-7.495,7.495c0,2.983,1.749,5.547,4.271,6.754l0.233-4.531
				c0,0-0.442-0.146-0.537-0.191c-0.936-0.412-1.616-1.627-1.616-3.204c0-1.716,1.331-3.196,2.622-3.21h0.005
				c1.288,0.014,2.623,1.494,2.623,3.21c0,1.576-0.681,2.792-1.616,3.204c-0.009,0.002-0.542,0.197-0.542,0.197l0.263,5.039
				c0.575,0.141,1.171,0.225,1.79,0.225c0.835,0,1.635-0.141,2.383-0.393l0.233-4.492c-0.612-0.135-1.134-0.523-1.461-1.014
				c-0.407-0.604,0.312-5.976,0.312-5.976h0.467v5.041h0.463V6.02h0.504v5.041h0.465V6.02h0.523v5.041H14.1V6.02h0.358
				c0,0,0.716,5.373,0.312,5.98c-0.325,0.482-0.84,0.869-1.445,1.008c-0.011,0.002-0.02,0.008-0.02,0.008l0.201,3.861
				c2.232-1.295,3.736-3.707,3.736-6.475C17.24,6.261,13.886,2.907,9.748,2.907L9.748,2.907z M9.748,2.907"/>
			<path fill="#FFFFFF" d="M5.699,8.471c0.027-0.112,0.064-0.214,0.064-0.217c0.011-0.042-0.01-0.082-0.054-0.108
				C5.669,8.124,5.615,8.135,5.593,8.17c0,0-0.051,0.081-0.127,0.203C5.406,8.476,5.317,8.642,5.257,8.85
				C5.203,9.03,5.14,9.271,5.11,9.542c-0.011,0.142-0.013,0.27-0.011,0.399c0.011,0.151,0.036,0.279,0.079,0.426
				c0.147,0.42,0.26,0.825,0.67,1.223c0.127,0.133,0.26,0.225,0.357,0.289l0.033,0.025c0.021,0.014,0.041,0.027,0.06,0.037
				C6.379,11.982,6.434,12,6.445,12.002c0.038,0.01,0.081-0.008,0.098-0.041c0.016-0.035,0.005-0.078-0.03-0.105
				c0,0-0.046-0.041-0.106-0.117c-0.04-0.045-0.086-0.111-0.138-0.188c-0.036-0.053-0.079-0.113-0.12-0.172
				c-0.198-0.305-0.314-0.728-0.471-1.165C5.645,10.12,5.62,9.998,5.609,9.894C5.599,9.775,5.59,9.658,5.59,9.553
				c-0.002-0.25,0.008-0.464,0.03-0.638C5.645,8.72,5.664,8.574,5.699,8.471L5.699,8.471z M5.699,8.471"/>
			<path fill="#FFFFFF" d="M9.748,1.516c-4.9,0-8.886,3.985-8.886,8.886c0,4.897,3.986,8.885,8.886,8.885s8.886-3.988,8.886-8.885
				C18.634,5.501,14.647,1.516,9.748,1.516L9.748,1.516z M9.748,18.623c-4.534,0-8.225-3.688-8.225-8.221
				c0-4.534,3.691-8.225,8.225-8.225s8.221,3.69,8.221,8.225C17.969,14.936,14.281,18.623,9.748,18.623L9.748,18.623z M9.748,18.623
				"/>
		</g>
	</g>
</g>
</svg>
