<?xml version="1.0" encoding="utf-8"?>
<!-- Generator: Adobe Illustrator 16.0.4, SVG Export Plug-In . SVG Version: 6.00 Build 0)  -->
<!DOCTYPE svg PUBLIC "-//W3C//DTD SVG 1.1//EN" "http://www.w3.org/Graphics/SVG/1.1/DTD/svg11.dtd">
<svg version="1.1" xmlns="http://www.w3.org/2000/svg" xmlns:xlink="http://www.w3.org/1999/xlink" x="0px" y="0px" width="325px"
	 height="80px" viewBox="0 0 325 80" enable-background="new 0 0 325 80" xml:space="preserve">
<g id="Logo_Common">
	<rect x="-1.25" y="-1" fill="#131414" width="326" height="82"/>
</g>
<g id="Logo_Footer">
	<g>
		<g>
			<path fill="#9B9B9B" d="M50.11,30.852l4.316,0.985l-4.619-2.727l-2.651-6.286l-0.455,4.092l-11.284-6.817l-8.783,1.817
				l6.063-5.754L12.708,26.313L7.95,39.193l2.322-1.601l3.938,17.571l4.088,2.576l-2.197,0.757l3.558-0.075l6.813,4.317
				l-2.356-4.016l15.213,0.455l4.42-4.447v1.494l1.138-2.124l4.463-4.313l-2.949,0.832l5.941-15.146L50.11,30.852z M44.883,51.149
				l-22.04,5.604L11.18,36.607l13.861-13.179l21.434,6.212L44.883,51.149z"/>
			<path fill="#9B9B9B" d="M43.5,43.128l0.93-5.688l-1.589,2.118l-1.593-8.63l-3.875-2.57l1.528-0.384l-2.236-0.085l-2.156-1.431
				l0.726,1.375l-12.24-0.466l-4.192,3.829l-0.124-0.572l-0.06,0.741l-1.553,1.418l-0.884-0.72l0.625,0.957l-0.777,0.709
				l1.066-0.267l1.2,1.831l-0.194,2.35l-1.997,1.465L18,38.866l-0.381,4.635l5.15,5.983l-0.492-2.272l5.843,3.711l-0.428,0.758
				l0.641-0.622l3.602,2.286l8.103-2.044l-4.08-1.003l7.185-4.981l0.315-1.929l0.14,0.265L43.5,43.128z M17.708,33.307l0.764-0.194
				l-0.061,0.765L17.708,33.307z M22.212,46.92L20.4,38.56l0.031-0.003l2.793,4.263c0.226,0,7.953,1.439,7.953,1.439l-7.519-6.114
				l12.602-1.606l-6.872,12.144L22.212,46.92z M34.969,50.055l-4.465-1.099l6.73-6.517l0.172-6.048l1.873-0.238l-1.857-0.317
				l0.04-1.422l-0.738,1.304l-12.97-2.215l-3.052,2.236l-1.109-0.901l-0.412-1.9l16.55-4.166l6.284,11.889L34.969,50.055z"/>
		</g>
	</g>
	<g>
		
			<image overflow="visible" opacity="0.75" width="273" height="67" xlink:href="FB57DDF58D750B6.png"  transform="matrix(1 0 0 1 56.75 11)">
		</image>
		<g>
			<g>
				<path fill="#FFFFFF" d="M90.07,17.671c0.167-0.838,3.742-1.061,3.518,0c-1.452,3.519-3.518,9.494-6.199,15.637
					c4.523,0.894,9.159,2.122,13.459,2.625c1.508-3.184,3.071-6.422,4.412-9.717c0.614-1.452,0.446-1.955,0.279-2.29
					c0.167-1.787,3.798-6.646,6.702-6.646c0.726,0,3.574,0.726,3.407,2.457c-0.167-0.056-0.447-0.279-0.67-0.279
					c-4.077,0-10.108,13.068-11.728,16.698c1.62,0,3.407-0.223,4.747-0.782c0.782-0.279,1.34-0.782,1.675-1.229
					c0.335-0.559,0.95,0,0.559,0.614c-0.447,0.67-1.173,1.229-2.122,1.62c-1.508,0.614-3.519,0.726-5.306,0.726
					c-2.234,5.25-5.976,17.424,3.519,10.164c2.513-1.954,4.691-4.411,6.143-6.366c0.223-0.224,0.949-0.167,0.67,0.503
					c-0.167,0.391-2.681,4.076-6.59,7.26c-2.178,1.676-4.356,1.955-5.473,1.955c-5.361,0-2.792-7.986-1.787-10.779
					c0.335-0.949,0.726-1.899,1.173-2.848c-4.691-0.447-9.215-1.285-13.85-1.843c-4.3,9.773-9.885,19.714-16.475,21.725
					c-1.787,0.614-3.351,0.614-4.636,0.223c-1.563-0.502-2.625-1.563-3.071-3.238c-0.279-0.95,0.391-2.346,0.949-0.279
					c0.335,1.116,1.061,1.787,2.122,2.066c0.894,0.167,2.569,0.391,3.742,0c6.59-2.066,11.616-11.449,15.246-20.775l-2.96-0.168
					c-3.909-0.223-8.656,0.279-10.164,4.524c-0.391,0.837-0.391,1.62,0,2.178c0.447,0.726-0.503,1.229-1.005,0.446
					c-0.391-0.726-0.67-2.066-0.559-3.406c0.615-6.758,6.422-6.758,12.007-6.087c1.117,0.112,2.29,0.279,3.407,0.502
					c1.285-3.407,2.346-6.757,3.239-9.605c-2.178,1.955-4.971,2.848-7.26,3.071c-0.838,0.056-0.782-0.837,0.056-0.949
					C84.485,25.043,88.283,21.636,90.07,17.671z"/>
				<path fill="#FFFFFF" d="M98.055,70.446c-0.391-0.111-0.837-0.224-1.117-0.391c-3.574-1.731-1.899-5.082,1.117-8.545
					c2.792-3.239,8.601-7.093,12.231-9.494c2.29-4.747,4.3-9.215,5.919-14.241c-0.782,1.005-2.569,3.072-3.574,4.3
					c-0.558,0.782-1.173,0-0.614-0.614c1.843-2.29,3.965-5.25,5.026-6.59c1.005-1.229,3.965,0.502,3.686,1.117
					c-1.955,4.58-3.965,9.159-6.032,13.626c1.452-0.781,6.311-4.858,9.829-8.879c1.452-1.676,1.731-0.336,0.279,1.34
					c-2.457,2.792-9.103,8.712-11.225,9.94c-2.401,4.915-4.635,9.55-6.367,12.287C105.092,67.375,101.853,71.117,98.055,70.446z
					 M99.339,62.404c-2.234,2.234-3.63,5.585-1.843,6.534c0.502,0.279,1.34,0.112,2.681-0.949c4.244-3.519,6.702-9.104,9.047-13.851
					C106.32,56.317,102.244,59.444,99.339,62.404z M122.292,30.851c-1.005,0-2.401,0-2.401-1.173c0-0.279,3.016-2.513,3.351-2.792
					c2.345-1.843,0.949,0.112,0.949,1.229C124.191,28.729,122.851,30.851,122.292,30.851z"/>
				<path fill="#FFFFFF" d="M129.217,34.872c0.335-0.447,0.614-0.95,0.838-1.396c0.949-2.01,8.377-18.708,15.693-17.201
					c3.184,0.614,2.904,3.183,1.62,5.473c-2.96,5.193-10.611,10.778-15.861,15.022c-1.731,3.854-2.681,6.925-3.239,8.656
					c2.345-2.903,7.204-8.153,10.276-10.555c2.569-1.955,4.635-2.066,4.747-0.335c0.167,1.843-1.676,4.356-2.513,5.92
					c-1.061,2.178-1.675,4.3-1.787,5.528c-0.391,2.401,0.726,3.687,2.569,2.736c1.787-1.005,5.976-4.523,8.321-7.763
					c0.335-0.391,0.949-0.056,0.67,0.447c-1.061,1.954-4.468,5.641-7.204,7.65c-1.787,1.341-5.976,2.681-7.093-0.67
					c-0.223-0.67-0.223-1.619-0.056-2.681c0.279-2.346,1.843-5.249,2.96-7.316c1.005-1.843,0.726-3.127-3.351,0.391
					c-3.183,2.904-7.875,10.275-8.936,10.891c-0.558,0.278-3.518,1.619-2.959,0.558c0.335-0.837,2.848-8.209,4.468-12.342
					c-0.782,1.005-3.072,3.687-4.58,5.306c-0.559,0.614-0.559-0.67-0.056-1.396c1.62-2.066,3.239-3.909,4.468-5.584
					c-1.061-0.559-0.391-2.066,0.726-1.452L129.217,34.872z M145.972,20.743c1.396-2.681,0.558-4.3-2.234-2.178
					c-5.026,3.854-8.209,9.271-11.114,15.693C137.092,31.354,143.458,25.49,145.972,20.743z"/>
				<path fill="#FFFFFF" d="M197.908,57.155c3.406,0.614,8.823-0.559,7.818-5.306c-0.224-1.117,0.894-0.894,1.117,0.056
					c0.335,1.787,0.056,3.239-0.392,4.468c-0.837,2.625-5.138,4.356-9.494,3.519c-12.677-2.457-18.765-14.967-23.455-21.11
					c-0.168-0.279-0.392-0.056-0.392-0.056c-1.675,3.127-3.071,6.087-3.797,7.707c-1.284,3.183,0.559,2.96,1.843,1.452
					c0.837-1.006,1.619-1.955,2.066-1.899c0.279,0.279-0.671,1.396-0.726,1.452c-0.838,1.229-2.402,3.909-3.91,3.909
					c-0.279,0-2.122-0.279-2.178-0.67c-0.279-2.122,2.234-7.316,4.579-11.951c-0.558-0.056-1.005-0.224-1.229-0.335
					c-1.117-0.726-0.726-2.513,1.173-2.513c0.335,0,1.006,0.224,1.34,0.503c1.174-2.234,2.29-4.188,2.793-5.25
					c0.67-1.396,0.503-1.955,0.391-2.29c0.279-1.843,4.301-6.646,7.204-6.646c0.559,0,2.793,0.559,3.128,1.899
					c0.279,0.894-0.335,0.335-0.614,0.335c-3.184,0-7.651,6.534-11.17,12.677c0.503,0.223,1.341,0.391,2.401,0.223
					c7.037-0.782,15.358-3.462,19.603-7.875c3.295-3.407,2.514-7.707-3.127-9.382c-9.048-2.513-28.929,0.224-30.437,9.327
					c-0.447,2.681,2.513,3.407,3.63,4.077c0.67,0.503,0.335,0.95-0.391,0.782c-1.731-0.279-5.361-2.458-4.635-5.864
					c0-0.056-0.112-0.614-0.112-0.894c0.67-3.519,5.138-6.422,8.209-7.986c5.641-2.681,15.693-3.909,23.567-1.396
					c4.356,1.508,6.869,4.691,6.59,7.93c-0.502,6.144-8.321,9.662-15.47,11.281c-2.903,0.614-6.255,1.005-9.047,1.117
					C181.153,46.265,187.018,55.145,197.908,57.155z"/>
				<path fill="#FFFFFF" d="M201.648,44.868c-0.336-1.173,0.446-2.066,1.396-1.787c1.508-3.016,1.062-4.188,0.782-4.858
					c-0.614-1.563,1.843-2.122,2.29-0.614c0.781,2.29-1.173,5.752-2.401,7.483c0.056,1.062,0.67,1.508,1.396,1.508
					c1.787,0,3.63-2.066,4.747-3.239c0.67-0.781,1.396-1.619,1.955-2.401c0.279-0.391,0.949-0.056,0.67,0.447
					c-0.335,0.67-1.062,1.563-1.898,2.568c-1.229,1.508-3.463,3.91-5.641,3.91c-0.949,0-1.899-0.559-2.29-1.396
					c-0.726,0.781-1.452,1.508-2.178,2.178c-2.514,2.122-5.529,2.29-7.372,1.117c-1.843-1.117-2.514-3.742-1.508-7.204
					c0.559-2.122,2.401-5.083,4.914-7.316c2.066-1.843,4.58-2.736,6.255-2.122c1.006,0.335,1.844,1.285,1.62,2.681
					c-0.112,0.894-0.949,0.838-0.949,0.391c0.111-0.615,0-1.508-1.062-1.508c-2.457,0-7.818,5.696-8.712,10.778
					c-0.391,2.179,0.279,4.077,2.346,4.077c1.73,0,4.133-1.843,5.808-4.356C201.76,45.092,201.648,45.036,201.648,44.868z"/>
				<path fill="#FFFFFF" d="M223.373,34.593l4.3,1.005c0.782-0.726,4.188-2.681,4.356-1.005c0.111,1.955-3.295,3.518-4.803,3.183
					c-2.625,2.122-6.59,5.473-9.662,8.209c-0.335,0.279-0.838,0.782-1.452,1.284l1.676,0.838c3.071,1.843,5.641,3.072,8.433,1.508
					c2.29-1.34,7.037-5.696,9.159-8.656c0.279-0.391,1.229-0.279,0.949,0.224c-1.173,2.011-6.143,7.093-8.936,9.159
					c-1.284,0.949-2.122,1.229-2.625,1.396c-2.96,1.006-5.528,0-8.433-1.843c-0.559-0.335-1.34-0.781-2.178-1.061
					c-1.676,1.284-3.519,2.233-4.412,1.787c-0.782-0.447-0.335-3.016,2.011-3.798c1.061-0.335,2.346-0.224,3.574,0.167
					c0.894-0.726,1.619-1.34,1.731-1.508c3.016-2.568,6.366-5.863,8.656-8.098c-1.844-0.558-3.184-0.949-4.803-1.172
					c-2.346-0.279-3.687,0.335-4.971,1.563c-1.229,1.117-2.514,2.569-3.463,3.91c-0.279,0.335-0.838,1.116-1.117,0.838
					c-0.223-0.168-0.335-0.503-0.056-0.949l3.742-5.139C217.732,32.582,220.413,33.922,223.373,34.593z"/>
				<path fill="#FFFFFF" d="M237.669,37.05c0.614-1.731,1.173-3.127,1.954-3.295c0.727-0.056,1.676,0.112,1.955,0.67
					c0.335,0.67-0.279,1.731-1.117,3.462c-1.676,3.351-3.184,6.311-3.351,8.098c-0.392,2.401,0.726,3.687,2.568,2.736
					c1.787-1.005,5.976-4.523,8.321-7.763c0.279-0.391,0.949-0.056,0.671,0.447c-1.062,1.954-4.468,5.641-7.261,7.65
					c-1.787,1.341-5.92,2.681-7.036-0.67c-0.447-1.284,0.502-4.3,1.675-6.869c-0.502,0.614-1.005,1.452-2.178,2.793
					c-0.559,0.614-1.117-0.112-0.614-0.782c1.954-2.401,3.462-4.468,4.3-5.752C237.501,37.608,237.501,37.385,237.669,37.05z
					 M242.137,30.851c-1.006,0-2.401,0-2.401-1.173c0-0.279,3.016-2.513,3.351-2.792c2.289-1.843,0.894,0.112,0.894,1.229
					C243.979,28.729,242.695,30.851,242.137,30.851z"/>
				<path fill="#FFFFFF" d="M246.492,47.94c-4.133-5.25,8.601-13.627,12.789-14.632c1.675-0.447,4.133-0.559,5.585,0.447
					c0.558,0.391,0.949,0.949,0.949,1.508c0,0.391-0.056,0.391-0.335,0.279c-0.614-0.949-1.731-1.061-2.793-1.061
					c-2.904,0-6.813,2.234-9.717,4.803c-1.564,1.453-6.199,6.757-4.468,9.215c0.781,1.116,3.518-0.894,4.3-1.509
					c1.452-1.229,3.965-3.351,5.417-4.914c0.782-0.838,5.026-5.529,5.529-5.529c0.559,0,2.736,0.447,2.233,1.34
					c-2.01,2.849-3.127,6.311-3.351,8.098c-0.335,2.401,0.782,3.687,2.569,2.736c1.843-1.005,6.031-4.523,8.321-7.763
					c0.279-0.391,0.949-0.056,0.67,0.447c-1.005,1.954-4.468,5.641-7.261,7.65c-1.787,1.341-5.919,2.681-7.036-0.67
					c-0.503-1.508,0.167-4.858,0.894-6.812c-0.949,0.446-6.255,8.265-10.723,8.265C248.894,49.839,247.33,49.057,246.492,47.94z"/>
				<path fill="#FFFFFF" d="M282.122,38.781c-3.184,2.904-7.875,10.275-8.936,10.891c-0.559,0.278-3.519,1.619-2.96,0.558
					c0.446-1.116,3.741-10.667,4.858-13.738c0.279-0.67,0.056-3.295,2.96-2.513c0.894,0.223,0.838,0.726,0.391,1.619
					c-1.396,3.072-3.183,8.042-3.854,9.829c2.346-2.903,7.205-8.153,10.276-10.555c3.239-2.401,5.585-2.011,4.468,1.34
					c-0.614,1.898-1.898,3.63-2.625,5.529c-0.726,1.675-1.117,3.184-1.284,4.244c-0.335,2.401,0.782,3.687,2.569,2.736
					c1.787-1.005,6.031-4.523,8.32-7.763c0.279-0.391,1.006-0.056,0.727,0.447c-1.062,1.954-4.468,5.641-7.26,7.65
					c-1.062,0.782-2.904,1.564-4.469,1.396c-5.863-0.559-1.284-9.438,0.112-12.007C286.422,36.659,286.199,35.263,282.122,38.781z"
					/>
				<path fill="#FFFFFF" d="M294.854,47.94c-4.133-5.25,8.601-13.627,12.789-14.632c1.675-0.447,4.133-0.559,5.585,0.447
					c0.558,0.391,0.949,0.949,0.949,1.508c0,0.391-0.056,0.391-0.335,0.279c-0.614-0.949-1.731-1.061-2.793-1.061
					c-2.903,0-6.813,2.234-9.717,4.803c-1.564,1.453-6.199,6.757-4.468,9.215c0.781,1.116,3.518-0.894,4.3-1.509
					c1.452-1.229,3.965-3.351,5.417-4.914c0.782-0.838,5.026-5.529,5.529-5.529c0.559,0,2.736,0.447,2.233,1.34
					c-2.01,2.849-3.127,6.311-3.351,8.098c-0.335,2.401,0.782,3.687,2.569,2.736c1.843-1.005,6.031-4.523,8.321-7.763
					c0.279-0.391,0.949-0.056,0.67,0.447c-1.006,1.954-4.468,5.641-7.26,7.65c-1.787,1.341-5.92,2.681-7.037-0.67
					c-0.503-1.508,0.167-4.858,0.894-6.812c-0.949,0.446-6.255,8.265-10.723,8.265C297.256,49.839,295.692,49.057,294.854,47.94z"/>
			</g>
		</g>
	</g>
	<g>
		<g>
			<path fill="#CEB920" d="M42.976-88.901l4.213,0.962l-4.509-2.662l-2.587-6.136l-0.444,3.993l-11.013-6.653l-8.573,1.774
				l5.917-5.617l-19.51,9.908L1.826-80.761l2.267-1.562l3.843,17.148l3.991,2.514l-2.145,0.74l3.473-0.074l6.65,4.214l-2.299-3.919
				l14.339,0.445l3.805-4.341v1.456l1.62-2.072l4.611-4.21l-2.752,0.812l5.863-14.783L42.976-88.901z M37.874-69.091l-21.511,5.47
				L4.979-83.284l13.528-12.863l20.92,6.063L37.874-69.091z"/>
			<path fill="#CEB920" d="M36.523-76.92l0.907-5.552l-1.55,2.068l-1.555-8.424l-3.782-2.509l1.49-0.375l-2.182-0.083l-2.104-1.396
				l0.709,1.342L16.51-92.303l-4.092,3.737l-0.121-0.559l-0.059,0.723l-1.516,1.384L9.86-87.72l0.61,0.934l-0.759,0.692l1.041-0.26
				l1.171,1.786l-0.189,2.294l-1.948,1.43l1.85-0.235l-0.371,4.523l5.025,5.84l-0.48-2.219l5.703,3.623l-0.418,0.738l0.625-0.606
				l3.515,2.231l7.909-1.995l-3.982-0.979l7.012-4.863l0.308-1.881l0.137,0.258L36.523-76.92z M11.351-86.506l0.746-0.189
				l-0.06,0.747L11.351-86.506z M15.747-73.22l-1.769-8.159l0.03-0.003l2.727,4.161c0.22,0,7.762,1.404,7.762,1.404l-7.339-5.968
				l12.3-1.568L22.75-71.5L15.747-73.22z M28.197-70.16l-4.358-1.072l6.569-6.359l0.168-5.904l1.828-0.232l-1.813-0.309l0.04-1.389
				l-0.72,1.273l-12.659-2.162l-2.979,2.183l-1.083-0.88l-0.402-1.854l16.153-4.067l6.133,11.604L28.197-70.16z"/>
		</g>
	</g>
</g>
</svg>
